# xmcd
#
# Track frame offsets: 
#        150
#        25568
#        48511
#        72804
#        90834
#        117797
#        138985
#        166555
#        189858
#        229061
#        248186
#        283016
#        297986
#        314629
#        328429
#
# Disc length: 4637 seconds
#
# Revision: 0
# Processed by: cddbd v1.5.2PL0 Copyright (c) Steve Scherf et al.
# Submitted via: ExactAudioCopy v1.0b4
#
DISCID=cc121b0f
DTITLE=The Mick Fleetwood Blues Band and Rick Vito - Blue Again!
DYEAR=2008
DGENRE=Blues Rock
TTITLE0=The Mick Fleetwood Blues Band and - Red Hot Gal
TTITLE1=The Mick Fleetwood Blues Band and - Looking For Somebody
TTITLE2=The Mick Fleetwood Blues Band and - Fleetwood Boogie
TTITLE3=The Mick Fleetwood Blues Band and - Stop Messin' Around
TTITLE4=The Mick Fleetwood Blues Band and - Rattlesnake Shake
TTITLE5=The Mick Fleetwood Blues Band and - When We Do The Lucky Devil
TTITLE6=The Mick Fleetwood Blues Band and - Love That Burns
TTITLE7=The Mick Fleetwood Blues Band and - Rollin' Man \\ Bayou Queen
TTITLE8=The Mick Fleetwood Blues Band and - Black Magic Woman
TTITLE9=The Mick Fleetwood Blues Band and - I Got A Hole In My Shoe
TTITLE10=The Mick Fleetwood Blues Band and - Shake Your Moneymaker
TTITLE11=The Mick Fleetwood Blues Band and - Albatross
TTITLE12=The Mick Fleetwood Blues Band and - Napili Noctourne
TTITLE13=The Mick Fleetwood Blues Band and - The Supernatural
TTITLE14=The Mick Fleetwood Blues Band and - La Mer D'Amour
EXTD=
EXTT0=
EXTT1=
EXTT2=
EXTT3=
EXTT4=
EXTT5=
EXTT6=
EXTT7=
EXTT8=
EXTT9=
EXTT10=
EXTT11=
EXTT12=
EXTT13=
EXTT14=
PLAYORDER=
